<svg xmlns="http://www.w3.org/2000/svg" viewBox="0 0 256 256">
  <path d="M84 214c-18 0-34-14-34-32v-44c0-10 8-18 18-18 10 0 18 8 18 18v-18c0-10 8-18 18-18 10 0 18 8 18 18v-10c0-10 8-18 18-18 10 0 18 8 18 18v24c0-10 8-18 18-18 10 0 18 8 18 18v36c0 34-28 62-62 62H84z" fill="#fde68a" stroke="#b45309" stroke-width="8" stroke-linejoin="round"/>
  <path d="M54 86l14-10" stroke="#111827" stroke-width="8" stroke-linecap="round"/>
  <path d="M78 66l10-14" stroke="#111827" stroke-width="8" stroke-linecap="round"/>
  <path d="M106 54l4-16" stroke="#111827" stroke-width="8" stroke-linecap="round"/>
</svg>
